<?xml version="1.0" encoding="UTF-8" standalone="no"?><!DOCTYPE svg PUBLIC "-//W3C//DTD SVG 1.1//EN" "http://www.w3.org/Graphics/SVG/1.1/DTD/svg11.dtd"><svg width="100%" height="100%" viewBox="0 0 4000 4000" version="1.1" xmlns="http://www.w3.org/2000/svg" xmlns:xlink="http://www.w3.org/1999/xlink" xml:space="preserve" xmlns:serif="http://www.serif.com/" style="fill-rule:evenodd;clip-rule:evenodd;stroke-linejoin:round;stroke-miterlimit:2;"><path d="M1998.49,2764.35c421.82,0 763.773,-342.211 763.773,-764.35c0,-422.139 -341.953,-764.35 -763.773,-764.35c-421.821,-0 -763.774,342.211 -763.774,764.35c-0,422.139 341.953,764.35 763.774,764.35Zm-0,-2000c341.132,0 649.056,138.973 872.452,362.538l540.378,-540.785c-359.246,-362.538 -860.378,-586.103 -1412.83,-586.103c-1104.91,0 -1998.49,897.281 -1998.49,2000l763.774,-0c-0,-682.779 552.452,-1235.65 1234.72,-1235.65Zm1237.74,1235.65c0,682.779 -552.452,1235.65 -1234.72,1235.65c-341.132,-0 -649.056,-138.973 -875.471,-362.538l-540.378,540.785c362.265,362.538 860.378,586.103 1412.83,586.103c1104.9,-0 2001.51,-897.281 2001.51,-2000l-763.774,-0Z" style="fill:#5165f6;fill-rule:nonzero;"/></svg>