<?xml version="1.0" encoding="UTF-8" standalone="no"?><!DOCTYPE svg PUBLIC "-//W3C//DTD SVG 1.1//EN" "http://www.w3.org/Graphics/SVG/1.1/DTD/svg11.dtd"><svg width="100%" height="100%" viewBox="0 0 4000 4000" version="1.1" xmlns="http://www.w3.org/2000/svg" xmlns:xlink="http://www.w3.org/1999/xlink" xml:space="preserve" xmlns:serif="http://www.serif.com/" style="fill-rule:evenodd;clip-rule:evenodd;stroke-linejoin:round;stroke-miterlimit:2;"><g><path d="M667.615,665.288c-0,-0 48.473,-72.52 68.574,-104.646c20.104,-32.126 -52.041,-108.028 -80.033,-132.075c-27.995,-24.047 -72.143,-12.025 -72.143,-12.025c-352.266,156.124 -528.492,476.45 -552.539,540.514c-24.049,64.066 61.247,133.956 124.185,168.149c28.932,15.781 74.961,-19.164 103.331,-45.091l9.58,-9.769l15.03,-15.219l958.347,954.595l130.948,-130.964l240.669,-240.667l-947.264,-971.487l1.315,-1.315Z" style="fill:#5165f6;fill-rule:nonzero;"/><path d="M2931.64,1672.26l50.545,-48.089l454.088,449.771c3.201,2.827 6.576,3.945 9.579,3.945c8.658,-0 15.781,-7.891 15.781,-7.891c0,0 502.748,-498.802 504.458,-500.49c14.839,-14.664 0,-22.73 0,-22.73l-387.785,-390.413l-0.57,0.566l-53.152,-52.042l29.678,-28.557l63.498,7.327l-12.012,-84.168l15.957,-16.156l-23.847,-121.368c-82.853,-117.42 -309.82,-305.482 -309.82,-305.482l-118.734,-21.419l-12.011,15.97l-89.428,-13.34l8.636,76.277l5.633,5.638l-26.5,26.677l-146.526,-143.348c0,-0 -850.334,-461.796 -895.596,-483.212c-25.557,-11.836 -44.341,-19.727 -62.38,-19.727c-13.897,0 -27.421,4.697 -43.027,15.781c-36.078,25.362 -14.839,76.466 -14.839,76.466l528.678,976.945l105.78,104.834l-33.076,33.065l-12.208,12.213l-84.541,-11.65l12.954,83.793l-24.417,24.424l-4.318,-4.323c-3.945,-3.945 -9.403,-6.01 -14.664,-6.01c-5.26,0 -10.521,2.065 -14.641,6.01c-8.088,8.08 -8.088,21.231 -0,29.31l4.318,4.32l-11.661,11.836l-3.003,-3.193c-4.121,-3.946 -9.381,-6.013 -14.642,-6.013c-5.457,0 -10.718,2.067 -14.663,6.013c-8.066,8.079 -8.066,21.23 -0,29.309l3.2,3.194l-222.452,223.579l-5.064,-5.085c-4.142,-3.946 -9.403,-6.006 -14.663,-6.006c-5.261,0 -10.521,2.06 -14.642,6.006c-8.088,8.088 -8.088,21.239 0,29.305l5.261,5.085l-11.836,11.836l-3.946,-3.77c-3.945,-4.121 -9.403,-6.203 -14.466,-6.203c-5.458,0 -10.718,2.082 -14.839,6.203c-7.891,8.088 -7.891,21.042 -0,29.13l3.945,3.945l-28.932,29.306l-3.946,37.196l15.212,15.606l-0.373,0.175l-18.411,18.784l-1200.34,1200.16l-15.593,-12.976l-49.786,7.146l-28.183,28.56l-1.878,-1.885c-4.132,-4.143 -9.392,-6.203 -14.653,-6.203c-5.26,-0 -10.709,2.06 -14.655,6.203c-8.079,8.088 -8.079,21.041 0,29.129l2.254,2.236l-11.648,12.033l-1.126,-1.117c-3.946,-4.143 -9.395,-6.203 -14.655,-6.203c-5.261,-0 -10.521,2.06 -14.655,6.203c-7.891,8.066 -7.891,21.042 -0,29.108l1.315,1.512l-219.625,223.373l-4.508,-4.515c-4.132,-4.121 -9.206,-6.006 -14.653,-6.006c-5.261,-0 -10.521,1.885 -14.655,6.006c-8.079,8.088 -8.079,21.239 0,29.327l4.884,4.69l-11.648,11.836l-3.568,-3.572c-4.134,-3.946 -9.395,-6.006 -14.844,-6.006c-5.072,0 -10.521,2.06 -14.466,6.006c-8.079,8.088 -8.079,21.239 0,29.305l3.757,3.945l-16.345,16.724l-85.106,-15.211l6.387,95.061l-26.865,27.42l23.295,128.137c-0,-0 35.697,111.587 109.155,185.629c71.205,71.761 179.796,106.13 184.493,109.702l122.681,21.415l30.248,-29.678l84.545,13.721l-13.903,-83.598l25.739,-25.184l11.836,11.836c3.945,3.945 9.206,6.006 14.466,6.006c5.261,-0 10.707,-2.061 14.653,-6.006c8.079,-8.263 8.079,-21.239 -0,-29.305l-11.648,-11.661l12.025,-11.639l10.144,10.149c3.945,4.12 9.394,6.203 14.655,6.203c5.26,-0 10.52,-2.083 14.654,-6.203c8.08,-8.088 8.08,-21.042 0,-29.13l-9.957,-10.149l223.007,-219.997l9.769,9.776c3.945,4.142 9.394,6.005 14.655,6.005c5.26,0 10.52,-1.863 14.652,-6.005c7.891,-8.088 7.891,-21.24 0,-29.306l-9.58,-9.403l11.836,-11.836l8.265,8.264c3.945,3.945 9.206,6.027 14.466,6.027c5.449,0 10.71,-2.082 14.655,-6.027c8.079,-8.067 8.079,-21.218 0,-29.306l-8.079,-8.066l24.987,-24.439l9.02,-53.525l-13.34,-13.349l0.189,-0.197l24.235,-24.045l1192.26,-1192.62l-0.57,-1.139l23.3,24.066l37.393,-4.142l33.623,-33.821l5.436,5.458c4.143,3.945 9.403,6.006 14.664,6.006c5.26,-0 10.718,-2.061 14.663,-6.006c8.066,-8.088 8.066,-21.239 0,-29.305l-5.458,-5.458l11.837,-11.639l4.142,4.121c3.946,3.945 9.206,6.006 14.642,6.006c5.26,-0 10.521,-2.061 14.466,-6.006c8.088,-8.066 8.088,-21.217 0,-29.305l-4.121,-4.318l222.804,-223.198l5.83,5.831c3.945,3.945 9.206,6.005 14.466,6.005c5.458,0 10.718,-2.06 14.664,-6.005c8.066,-8.088 8.066,-21.24 -0,-29.306l-5.831,-5.83l11.836,-11.836l4.516,4.69c4.12,3.946 9.381,6.006 14.641,6.006c5.261,0 10.521,-2.06 14.664,-6.006c8.066,-8.263 8.066,-21.217 -0,-29.305l-4.515,-4.69l24.79,-24.812l82.852,12.976l-13.524,-82.678Z" style="fill:#5165f6;fill-rule:nonzero;"/><path d="M3097.17,3020.24l-528.481,-400.541l-94.118,-96.946l-364.661,364.66l91.686,87.565l344.364,516.448l464.412,508.578l535.275,-499.373l-448.477,-480.391Z" style="fill:#5165f6;fill-rule:nonzero;"/></g></svg>